<?xml version="1.0" encoding="utf-8"?>
<!-- Generator: Adobe Illustrator 23.0.4, SVG Export Plug-In . SVG Version: 6.00 Build 0)  -->
<svg version="1.1" id="Layer_1" xmlns="http://www.w3.org/2000/svg" xmlns:xlink="http://www.w3.org/1999/xlink" x="0px" y="0px"
	 viewBox="0 0 1200 1200" style="enable-background:new 0 0 1200 1200;" xml:space="preserve">
<style type="text/css">
	.st0{fill:#E1F4FF;}
	.st1{fill:#3A3920;}
	.st2{fill:#22DB3D;}
	.st3{fill:#0FB4FF;}
	.st4{fill:#FFDA00;}
	.st5{fill:#996D35;}
	.st6{fill:#9A6E35;}
	.st7{fill:#199124;}
	.st8{fill:#232121;}
	.st9{fill:#3D3D3D;}
	.st10{fill:#4F4F4F;}
	.st11{fill:#FFB703;}
	.st12{fill:#383725;}
	.st13{fill:#706E35;}
	.st14{fill:#545227;}
	.st15{fill:#8C8946;}
	.st16{fill:#FCFCFB;}
</style>
<g>
	<polygon class="st0" points="261.1,619.3 279.8,516.8 435,514.9 449.8,606.3 	"/>
	<g>
		
			<rect x="527" y="576.3" transform="matrix(0.293 -0.9561 0.9561 0.293 -258.735 975.3901)" class="st1" width="6.4" height="172.8"/>
	</g>
	<path class="st0" d="M18.3,707.9l-8.7,0.8c-2.7,0.3-5.1-1.8-5.3-4.5l-3.7-45.7c-0.3-2.7,1.8-5.1,4.5-5.3l8.7-0.8
		c2.7-0.3,5.1,1.8,5.3,4.5l3.7,45.7C23,705.2,21,707.6,18.3,707.9z"/>
	<g>
		<rect x="363.6" y="518" class="st2" width="9.5" height="72.2"/>
		<g>
			<g>
				<g>
					
						<rect x="492.8" y="333.7" transform="matrix(7.553703e-02 -0.9971 0.9971 7.553703e-02 84.308 865.9278)" class="st3" width="32.8" height="107.6"/>
					
						<rect x="490.2" y="366.5" transform="matrix(7.553703e-02 -0.9971 0.9971 7.553703e-02 49.2147 893.7308)" class="st4" width="32.8" height="107.6"/>
				</g>
				
					<rect x="368.8" y="446.2" transform="matrix(7.076328e-02 -0.9975 0.9975 7.076328e-02 -27.9776 864.619)" class="st5" width="162.6" height="2.3"/>
			</g>
			<rect x="111.5" y="593.9" class="st6" width="8.7" height="34.8"/>
			<rect x="102.3" y="568.6" class="st6" width="27.3" height="34.8"/>
			<path class="st2" d="M296,739.8H18.7L11,651.8c0,0,0.6-25.8,23.1-27.7c0.5,0,1,0,1.4,0l275.4-24.4L296,739.8z"/>
			<path class="st7" d="M203.9,679.4l-85.1,0.5c-3.2,0-5.8-1.9-5.8-4.5l-5-31.9c0-2.6,2.6-4.6,5.6-4.6l89.6-2.1
				c3.2,0,5.8,1.9,5.8,4.5l0.5,33.6C209.6,677.2,207,679.4,203.9,679.4z"/>
			<path class="st2" d="M447.3,508.8h-145c-13.3,0-26.4-1.9-31.2,10.5L252.9,640l207.2,1.3L447.3,508.8z M441.4,626.9
				c0,0-164.6-3.6-168.3-3.6l10.4-100.8l142.6-2.2L441.4,626.9z"/>
			<g>
				<path class="st7" d="M231.5,739.8c-2.2-9.9-3.2-15.6-3.2-25.8c0-76.9,60.9-140.1,135.8-139.6c55.9,0.4,94.3,17.3,119.6,54.1
					L457,649.8c-21.8-31.7-55.3-55.9-92.8-55.9c-64.1,0-116.3,53.9-116.3,120c0,8.8,0.9,17.3,2.8,25.8L231.5,739.8L231.5,739.8z"/>
			</g>
			<g>
				<circle class="st8" cx="82.1" cy="754.1" r="75.9"/>
				<circle class="st9" cx="82.1" cy="754.1" r="43.6"/>
				<g>
					<path class="st10" d="M82.3,823.1v-12.6c1.8,0,3.5-0.1,5.3-0.3l1.2,12.6C86.5,823,84.3,823.1,82.3,823.1z M75.8,822.9
						c-2.1-0.1-4.2-0.5-6.3-0.9l2.3-12.4c1.7,0.3,3.5,0.5,5.1,0.8L75.8,822.9z M94.9,822l-2.3-12.4c1.7-0.3,3.5-0.8,5.1-1.2
						l3.5,12.1C99.1,821.1,97,821.6,94.9,822z M63.3,820.6c-2.1-0.5-4.1-1.3-6-2.1l4.5-11.8c1.7,0.6,3.3,1.2,5,1.7L63.3,820.6z
						 M107.1,818.5l-4.6-11.8c1.7-0.6,3.2-1.3,4.7-2.1l5.6,11.3C111.1,816.8,109.1,817.7,107.1,818.5z M51.5,815.9
						c-1.9-0.9-3.7-1.9-5.5-3.1l6.7-10.8c1.5,0.9,2.9,1.8,4.6,2.6L51.5,815.9z M118.5,812.7l-6.7-10.6c1.4-0.9,2.9-1.9,4.2-2.9
						l7.6,10C122.1,810.4,120.3,811.7,118.5,812.7z M40.6,809.3c-1.7-1.3-3.3-2.7-4.9-4.1l8.5-9.4c1.3,1.2,2.7,2.3,4,3.3L40.6,809.3
						z M128.7,805l-8.5-9.4c1.3-1.2,2.6-2.4,3.7-3.7l9.4,8.5C131.8,802.1,130.2,803.6,128.7,805z M31.2,800.7
						c-1.4-1.5-2.8-3.2-4.1-4.9l10-7.6c1,1.4,2.2,2.7,3.3,4L31.2,800.7z M137.3,795.7l-10-7.6c1-1.4,2.1-2.8,2.9-4.4l10.6,6.7
						C139.8,792.2,138.6,794,137.3,795.7z M23.5,790.5c-1.2-1.8-2.2-3.7-3.1-5.5l11.3-5.6c0.8,1.5,1.7,3.1,2.6,4.5L23.5,790.5z
						 M144,784.9l-11.3-5.6c0.8-1.5,1.5-3.2,2.1-4.7l11.8,4.5C145.8,781.1,145.1,783,144,784.9z M17.8,779.1c-0.8-1.9-1.4-4-2.1-6
						l12.1-3.5c0.5,1.7,1,3.3,1.7,4.9L17.8,779.1z M148.6,773l-12.2-3.5c0.5-1.7,0.9-3.3,1.2-5.1l12.4,2.3
						C149.7,768.9,149.3,770.9,148.6,773z M14.3,767c-0.4-2.1-0.6-4.2-0.9-6.3l12.6-1.2c0.1,1.7,0.4,3.5,0.8,5.1L14.3,767z
						 M151,760.4l-12.6-1.2c0.1-1.7,0.3-3.5,0.3-5.3v-0.1h12.6v0.3C151.2,756.2,151.2,758.4,151,760.4z M25.7,754.3H13.1
						c0-2.2,0.1-4.2,0.3-6.3l12.6,1.2C25.8,750.8,25.7,752.5,25.7,754.3L25.7,754.3z M138.3,748.6c-0.1-1.7-0.4-3.5-0.8-5.1
						l12.3-2.3c0.4,2.1,0.6,4.2,0.9,6.3L138.3,748.6z M26.6,743.9l-12.4-2.3c0.4-2.1,0.9-4.2,1.4-6.2l12.2,3.5
						C27.4,740.4,27,742.2,26.6,743.9z M136.4,738.5c-0.5-1.7-1-3.3-1.7-4.9l11.7-4.6c0.8,1.9,1.4,4,2.1,6L136.4,738.5z M29.4,733.8
						l-11.8-4.5c0.8-1.9,1.7-4,2.6-5.9l11.3,5.6C30.8,730.6,30.1,732.1,29.4,733.8z M132.5,728.6c-0.8-1.5-1.7-3.1-2.6-4.5l10.6-6.7
						c1.2,1.8,2.2,3.7,3.1,5.5L132.5,728.6z M34,724.4l-10.8-6.7c1.2-1.8,2.3-3.6,3.6-5.3l10,7.6C36,721.5,34.9,723,34,724.4z
						 M127,719.8c-1-1.4-2.2-2.7-3.3-4l9.2-8.5c1.4,1.5,2.8,3.2,4.1,4.9L127,719.8z M40.3,716.1l-9.4-8.5c1.4-1.5,2.9-3.1,4.5-4.5
						l8.5,9.2C42.8,713.5,41.5,714.8,40.3,716.1z M120,712.1c-1.3-1.2-2.7-2.3-4-3.3l7.6-10.1c1.7,1.3,3.3,2.7,4.9,4.1L120,712.1z
						 M48,709l-7.6-10c1.7-1.3,3.5-2.6,5.3-3.6l6.7,10.6C50.8,707,49.4,708,48,709z M111.6,705.9c-1.4-0.9-2.9-1.8-4.6-2.6l5.6-11.3
						c1.9,0.9,3.7,1.9,5.5,3.1L111.6,705.9z M56.9,703.5l-5.6-11.3c1.9-0.9,3.8-1.8,5.8-2.6l4.6,11.7
						C59.9,702.1,58.4,702.7,56.9,703.5z M102.4,701.3c-1.7-0.6-3.3-1.2-5-1.7l3.5-12.2c2.1,0.5,4.1,1.3,6,2.1L102.4,701.3z
						 M66.5,699.8L63,687.7c2.1-0.6,4.1-1,6.2-1.4l2.3,12.4C69.9,698.9,68.1,699.3,66.5,699.8z M92.4,698.5
						c-1.7-0.3-3.5-0.5-5.1-0.6l1.2-12.6c2.1,0.1,4.2,0.5,6.3,0.9L92.4,698.5z M76.7,697.9l-1.2-12.6c2.1-0.3,4.2-0.3,6.4-0.3v12.6
						C80.2,697.6,78.5,697.6,76.7,697.9z"/>
				</g>
			</g>
			<g>
				<circle class="st8" cx="358.7" cy="710.6" r="119.4"/>
				<g>
					<path class="st10" d="M354.2,821.4c-2.9-0.1-5.9-0.4-8.8-0.6l2.4-20.5c2.4,0.3,4.9,0.5,7.3,0.5L354.2,821.4z M363.2,821.4
						l-0.8-20.6c2.4-0.1,4.9-0.3,7.2-0.6l2.4,20.5C369.1,821.1,366.1,821.3,363.2,821.4z M336.5,819.4c-2.9-0.6-5.8-1.3-8.7-2.2
						l5.8-19.7c2.3,0.6,4.7,1.3,7.1,1.7L336.5,819.4z M380.9,819.3l-4.1-20.3c2.3-0.5,4.7-1,7.1-1.8l5.8,19.7
						C386.6,818,383.7,818.8,380.9,819.3z M319.5,814.4c-2.8-1-5.5-2.2-8.2-3.5l8.8-18.6c2.2,1,4.5,2.1,6.7,2.8L319.5,814.4z
						 M397.9,814.4l-7.3-19.2c2.3-0.9,4.5-1.8,6.7-2.8l8.8,18.6C403.4,812.1,400.8,813.4,397.9,814.4z M303.3,806.7
						c-2.6-1.5-5.1-3.1-7.6-4.7l11.7-16.9c1.9,1.4,4.1,2.7,6.2,3.8L303.3,806.7z M414.1,806.7l-10.4-17.8c2.1-1.2,4.1-2.6,6.2-3.8
						l11.7,16.9C419.3,803.6,416.8,805.2,414.1,806.7z M288.7,796.6c-2.3-1.9-4.5-3.8-6.7-5.9l14.2-14.9c1.8,1.7,3.6,3.3,5.4,4.9
						L288.7,796.6z M428.8,796.6l-13.1-15.9c1.9-1.5,3.7-3.2,5.4-4.9l14.2,14.9C433.4,792.7,431.1,794.6,428.8,796.6z M275.7,784.3
						c-1.9-2.2-3.8-4.5-5.6-6.9l16.4-12.4c1.4,1.9,2.9,3.8,4.6,5.6L275.7,784.3z M441.6,784.3l-15.4-13.8c1.7-1.8,3.2-3.7,4.6-5.6
						l16.4,12.4C445.6,779.6,443.7,782,441.6,784.3z M265.1,770c-1.5-2.6-3.1-5.1-4.5-7.7l18.2-9.6c1.2,2.2,2.3,4.2,3.6,6.3
						L265.1,770z M452.4,770L435,759c1.3-2.1,2.6-4.1,3.6-6.3l18.2,9.6C455.5,764.9,453.9,767.5,452.4,770z M256.7,754.3
						c-1.2-2.7-2.2-5.5-3.2-8.3l19.5-6.5c0.8,2.3,1.7,4.5,2.6,6.8L256.7,754.3z M460.7,754.3l-19-8.1c0.9-2.2,1.8-4.5,2.6-6.8
						l19.5,6.5C462.9,748.6,461.9,751.4,460.7,754.3z M251.1,737.5c-0.8-2.8-1.3-5.8-1.8-8.7l20.4-3.3c0.4,2.4,0.9,4.7,1.4,7.1
						L251.1,737.5z M466.4,737.2l-20-4.9c0.5-2.3,1-4.7,1.4-7.1l20.4,3.4C467.7,731.3,467,734.3,466.4,737.2z M248.2,719.7
						c-0.3-2.9-0.4-5.9-0.4-8.8h20.6c0,2.4,0.1,4.9,0.3,7.3L248.2,719.7z M469.2,719.5l-20.5-1.7c0.1-2.4,0.3-4.9,0.3-7.3v-0.3h20.6
						v0.3C469.6,713.6,469.5,716.6,469.2,719.5z M268.8,703.5l-20.5-1.7c0.3-2.9,0.6-5.9,1-8.8l20.4,3.2
						C269.2,698.6,268.9,701.1,268.8,703.5z M448.6,703.1c-0.3-2.4-0.5-4.9-0.9-7.2l20.4-3.3c0.5,2.9,0.9,5.9,1,8.8L448.6,703.1z
						 M271,689.1l-20-4.9c0.6-2.9,1.5-5.8,2.4-8.6l19.6,6.5C272.3,684.5,271.6,686.8,271,689.1z M446.2,688.9
						c-0.6-2.3-1.3-4.6-2.1-6.9l19.5-6.5c0.9,2.8,1.8,5.6,2.4,8.6L446.2,688.9z M275.6,675.4l-19-8.1c1.2-2.7,2.4-5.4,3.8-8.1
						l18.2,9.6C277.6,671.1,276.5,673.2,275.6,675.4z M441.6,675.2c-0.9-2.2-2.1-4.4-3.1-6.5l18.2-9.6c1.4,2.6,2.7,5.4,3.8,8.1
						L441.6,675.2z M282.4,662.6l-17.4-11c1.5-2.6,3.3-5,5.1-7.3l16.5,12.3C285,658.5,283.7,660.5,282.4,662.6z M434.8,662.3
						c-1.3-2.1-2.7-4.1-4.1-6l16.4-12.4c1.8,2.3,3.5,4.9,5.1,7.3L434.8,662.3z M291.1,650.9l-15.4-13.6c1.9-2.2,4-4.4,6.2-6.4
						l14.2,14.9C294.3,647.3,292.7,649.1,291.1,650.9z M426.1,650.7c-1.7-1.8-3.3-3.6-5-5.3l14.2-14.9c2.2,2.1,4.2,4.2,6.2,6.4
						L426.1,650.7z M301.5,640.9L288.4,625c2.3-1.9,4.7-3.7,7.1-5.4l11.8,16.9C305.3,637.8,303.4,639.4,301.5,640.9z M415.6,640.7
						c-1.9-1.5-3.8-2.9-5.8-4.4l11.7-16.9c2.4,1.7,4.9,3.5,7.2,5.4L415.6,640.7z M313.4,632.6L303,614.8c2.6-1.5,5.3-2.9,8-4.1
						l8.8,18.6C317.7,630.3,315.5,631.4,313.4,632.6z M403.6,632.5c-2.1-1.2-4.2-2.3-6.4-3.3l8.8-18.6c2.7,1.3,5.4,2.7,8,4.1
						L403.6,632.5z M326.5,626.3l-7.3-19.2c2.8-1,5.6-2.1,8.5-2.8l5.8,19.7C331.1,624.8,328.8,625.5,326.5,626.3z M390.5,626.3
						c-2.3-0.9-4.6-1.7-6.9-2.3l5.6-19.7c2.8,0.8,5.6,1.8,8.5,2.8L390.5,626.3z M340.5,622.3l-4.1-20.1c2.9-0.6,5.9-1,8.8-1.4
						l2.4,20.5C345.2,621.4,342.8,621.8,340.5,622.3z M376.5,622.2c-2.3-0.5-4.7-0.9-7.2-1.2l2.4-20.5c2.9,0.4,5.9,0.8,8.8,1.4
						L376.5,622.2z M354.8,620.5l-0.9-20.6c2.9-0.1,5.9-0.1,8.8,0l-0.8,20.6C359.7,620.4,357.3,620.4,354.8,620.5z"/>
				</g>
				<circle class="st9" cx="358.7" cy="710.6" r="75.9"/>
			</g>
		</g>
		<circle class="st11" cx="81.7" cy="753.5" r="22.6"/>
		<circle class="st11" cx="357.5" cy="710.7" r="47.6"/>
	</g>
	<g>
		<polygon class="st12" points="618.7,721.8 739.7,793.1 1137.5,801.4 1183.6,725.2 		"/>
		<g>
			<path class="st12" d="M1151.5,830l-16.3-0.3l0.1-5l13,0.1l0.1-0.3l0.8,0.4h0.8v0.4l3.2,1.4L1151.5,830z M1132.6,829.8l-16.7-0.3
				l0.1-5l16.7,0.3L1132.6,829.8z M1113.4,829.5l-16.7-0.3l0.1-5l16.7,0.3L1113.4,829.5z M1094.1,829.3l-16.7-0.3l0.1-5l16.7,0.3
				L1094.1,829.3z M1074.9,828.9l-16.7-0.3l0.1-5l16.7,0.3L1074.9,828.9z M1055.7,828.6l-16.7-0.3l0.1-5l16.7,0.3L1055.7,828.6z
				 M1036.4,828.4l-16.7-0.3l0.1-5l16.7,0.3L1036.4,828.4z M1017.2,828.1l-16.7-0.3l0.1-5l16.7,0.3L1017.2,828.1z M997.8,827.9
				l-16.7-0.3l0.1-5l16.7,0.3L997.8,827.9z M978.6,827.5l-16.7-0.3l0.1-5l16.7,0.3L978.6,827.5z M959.3,827.2l-16.7-0.3l0.1-5
				l16.7,0.3L959.3,827.2z M940,827l-16.7-0.3l0.1-5l16.7,0.3L940,827z M920.8,826.7l-16.7-0.3l0.1-5l16.7,0.3L920.8,826.7z
				 M901.6,826.5l-16.7-0.3l0.1-5l16.7,0.3L901.6,826.5z M882.3,826.1l-16.7-0.3l0.1-5l16.7,0.3L882.3,826.1z M863.1,825.8
				l-16.7-0.3l0.1-5l16.7,0.3L863.1,825.8z M843.9,825.6l-16.7-0.3l0.1-5l16.7,0.3L843.9,825.6z M824.6,825.3l-16.7-0.3l0.1-5
				l16.7,0.3L824.6,825.3z M805.4,825l-16.7-0.3l0.1-5l16.7,0.3L805.4,825z M786,824.7l-16.7-0.3l0.1-5l16.7,0.3L786,824.7z
				 M766.8,824.4l-16.7-0.3l0.1-5l16.7,0.3L766.8,824.4z M747.6,824.1l-16.7-0.3l0.1-5l16.7,0.3L747.6,824.1z M728.3,823.9
				l-16.7-0.3l0.1-5l16.7,0.3L728.3,823.9z M708.1,821.7l-13.2-9.9l3.2-3.8l13.2,9.9L708.1,821.7z M1154.2,824.5l-4.6-2.1l6.9-14.6
				l4.6,2.1L1154.2,824.5z M692.8,810.3l-13.2-9.9l3.2-3.8l13.2,9.9L692.8,810.3z M1162.1,807.6l-4.6-2.1l6.9-14.6l4.6,2.1
				L1162.1,807.6z M677.6,798.9l-13.2-9.9l3.2-3.8l13.2,9.9L677.6,798.9z M662.4,787.5l-13.2-9.9l3.2-3.8l13.2,9.9L662.4,787.5z
				 M1170.1,790.8l-4.6-2.1l6.9-14.6l4.6,2.1L1170.1,790.8z M647.2,776.1l-13.2-9.9l3.2-3.8l13.2,9.9L647.2,776.1z M1178.1,773.9
				l-4.6-2.1l6.9-14.6l4.6,2.1L1178.1,773.9z M632.1,764.5l-13.2-9.9l3.2-3.8l13.2,9.9L632.1,764.5z M616.9,753.1l-13.2-9.9l3.2-3.8
				l13.2,9.9L616.9,753.1z M1186.1,756.9l-4.6-2.1l6.9-14.6l4.6,2.1L1186.1,756.9z M601.7,741.7l-13.2-9.9l3.2-3.8l13.2,9.9
				L601.7,741.7z M1194,740.2l-4.6-2.1l1-2.1l4.6,2.1L1194,740.2z"/>
		</g>
		<g>
			
				<rect x="816.4" y="542.5" transform="matrix(1.461746e-02 -0.9999 0.9999 1.461746e-02 233.8752 1411.3723)" class="st13" width="33.3" height="89.1"/>
			<path class="st14" d="M716.1,651.1c0,0,2.8-60.1,36.5-59.6c49,0.8,251.7,3.7,251.7,3.7l8.3,40.3L716.1,651.1z"/>
			<polygon class="st13" points="1149.4,670.8 631.3,663.2 631.8,627.3 1122.5,634.5 			"/>
			<polygon class="st12" points="1149.4,670.8 1136.3,653.2 631.4,647 631.3,658.8 991,668.5 			"/>
			<polygon class="st14" points="631.3,663.2 1149.4,670.8 1140.6,658.9 631.4,651.3 			"/>
			
				<rect x="1062.5" y="536.3" transform="matrix(1.461746e-02 -0.9999 0.9999 1.461746e-02 438.2921 1665.0632)" class="st14" width="2.9" height="147.8"/>
			
				<rect x="1114" y="607.4" transform="matrix(1.461746e-02 -0.9999 0.9999 1.461746e-02 496.2466 1725.6765)" class="st14" width="19.4" height="7.4"/>
		</g>
		<g>
			<circle class="st15" cx="816.6" cy="788.2" r="12.7"/>
			
				<rect x="815.2" y="758" transform="matrix(1.461746e-02 -0.9999 0.9999 1.461746e-02 16.5717 1593.2472)" class="st15" width="2.9" height="60.4"/>
			
				<rect x="815.2" y="758.1" transform="matrix(0.5855 -0.8107 0.8107 0.5855 -300.5213 988.8392)" class="st15" width="2.9" height="60.4"/>
			
				<rect x="815" y="758" transform="matrix(0.9446 -0.3282 0.3282 0.9446 -213.4539 311.6171)" class="st15" width="2.9" height="60.4"/>
			
				<rect x="786.3" y="786.8" transform="matrix(0.2729 -0.962 0.962 0.2729 -164.6513 1358.6598)" class="st15" width="60.4" height="2.9"/>
			
				<rect x="786.3" y="786.7" transform="matrix(0.7754 -0.6315 0.6315 0.7754 -314.2896 692.6292)" class="st15" width="60.4" height="2.9"/>
			<g>
				<path class="st13" d="M816,822.1c-18.7-0.3-33.6-15.6-33.3-34.4c0.3-18.7,15.6-33.6,34.4-33.3s33.6,15.6,33.3,34.4
					S834.8,822.3,816,822.1z M816.9,761.1c-15-0.3-27.3,11.8-27.6,26.8s11.8,27.3,26.8,27.6s27.3-11.8,27.6-26.8
					C844,773.6,831.9,761.2,816.9,761.1z"/>
			</g>
		</g>
		<g>
			<circle class="st15" cx="893.9" cy="789.4" r="12.7"/>
			
				<rect x="892.4" y="759.2" transform="matrix(1.461746e-02 -0.9999 0.9999 1.461746e-02 91.4678 1671.5428)" class="st15" width="2.9" height="60.4"/>
			
				<rect x="892.4" y="759.1" transform="matrix(0.5855 -0.8107 0.8107 0.5855 -269.3268 1051.7899)" class="st15" width="2.9" height="60.4"/>
			
				<rect x="892.3" y="759.1" transform="matrix(0.9446 -0.3282 0.3282 0.9446 -209.5375 337.0572)" class="st15" width="2.9" height="60.4"/>
			
				<rect x="863.6" y="787.8" transform="matrix(0.2729 -0.962 0.962 0.2729 -109.3766 1433.7478)" class="st15" width="60.4" height="2.9"/>
			
				<rect x="863.7" y="787.8" transform="matrix(0.7754 -0.6315 0.6315 0.7754 -297.5961 741.757)" class="st15" width="60.4" height="2.9"/>
			<g>
				<path class="st13" d="M893.4,823.2c-18.7-0.3-33.6-15.6-33.3-34.4c0.3-18.7,15.6-33.6,34.4-33.3c18.8,0.3,33.6,15.6,33.3,34.4
					C927.5,808.5,912,823.5,893.4,823.2z M894.3,762.2c-15-0.3-27.3,11.8-27.6,26.8c-0.3,15,11.8,27.3,26.8,27.6
					c15,0.3,27.3-11.8,27.6-26.8C921.2,774.8,909.3,762.3,894.3,762.2z"/>
			</g>
		</g>
		<g>
			<circle class="st15" cx="971.2" cy="790.4" r="12.7"/>
			
				<rect x="969.8" y="760.2" transform="matrix(1.461746e-02 -0.9999 0.9999 1.461746e-02 166.6562 1749.9948)" class="st15" width="2.9" height="60.4"/>
			
				<rect x="969.7" y="760.3" transform="matrix(0.5855 -0.8107 0.8107 0.5855 -238.2965 1114.9872)" class="st15" width="2.9" height="60.4"/>
			
				<rect x="969.6" y="760.3" transform="matrix(0.9446 -0.3282 0.3282 0.9446 -205.6519 362.4718)" class="st15" width="2.9" height="60.4"/>
			
				<rect x="940.9" y="789" transform="matrix(0.2729 -0.962 0.962 0.2729 -54.4049 1508.941)" class="st15" width="60.4" height="2.9"/>
			
				<rect x="940.8" y="788.9" transform="matrix(0.7754 -0.6315 0.6315 0.7754 -280.968 790.7303)" class="st15" width="60.4" height="2.9"/>
			<g>
				<path class="st13" d="M970.7,824.4c-18.7-0.3-33.6-15.6-33.3-34.4c0.3-18.8,15.6-33.6,34.4-33.3c18.7,0.3,33.6,15.6,33.3,34.4
					C1004.8,809.7,989.4,824.7,970.7,824.4z M971.6,763.2c-15-0.3-27.3,11.8-27.6,26.8s11.8,27.3,26.8,27.6
					c15,0.3,27.3-11.8,27.6-26.8C998.6,775.9,986.6,763.5,971.6,763.2z"/>
			</g>
		</g>
		<g>
			<circle class="st15" cx="1048.5" cy="791.6" r="12.7"/>
			
				<rect x="1047.1" y="761.4" transform="matrix(1.461746e-02 -0.9999 0.9999 1.461746e-02 241.6462 1828.4425)" class="st15" width="2.9" height="60.4"/>
			
				<rect x="1047.1" y="761.5" transform="matrix(0.5855 -0.8107 0.8107 0.5855 -207.1873 1178.2455)" class="st15" width="2.9" height="60.4"/>
			
				<rect x="1046.9" y="761.4" transform="matrix(0.9446 -0.3282 0.3282 0.9446 -201.7321 387.9083)" class="st15" width="2.9" height="60.4"/>
			
				<rect x="1018.1" y="790.2" transform="matrix(0.2729 -0.962 0.962 0.2729 0.5667 1584.1338)" class="st15" width="60.4" height="2.9"/>
			
				<rect x="1018.1" y="790.1" transform="matrix(0.7754 -0.6315 0.6315 0.7754 -264.3741 839.7839)" class="st15" width="60.4" height="2.9"/>
			<g>
				<path class="st13" d="M1048,825.4c-18.7-0.3-33.6-15.6-33.3-34.4c0.3-18.7,15.6-33.6,34.4-33.3c18.8,0.3,33.6,15.6,33.3,34.4
					C1082.1,810.9,1066.7,825.7,1048,825.4z M1048.9,764.4c-15-0.3-27.3,11.8-27.6,26.8c-0.3,15,11.8,27.3,26.8,27.6
					c15,0.3,27.3-11.8,27.6-26.8S1063.9,764.6,1048.9,764.4z"/>
			</g>
		</g>
		<g>
			<circle class="st15" cx="1125.7" cy="792.7" r="12.7"/>
			
				<rect x="1124.3" y="762.6" transform="matrix(1.461746e-02 -0.9999 0.9999 1.461746e-02 316.6393 1906.8396)" class="st15" width="2.9" height="60.4"/>
			
				<rect x="1124.4" y="762.5" transform="matrix(0.5855 -0.8107 0.8107 0.5855 -176.0065 1241.2864)" class="st15" width="2.9" height="60.4"/>
			
				<rect x="1124.1" y="762.5" transform="matrix(0.9446 -0.3282 0.3282 0.9446 -197.8117 413.3216)" class="st15" width="2.9" height="60.4"/>
			
				<rect x="1095.4" y="791.2" transform="matrix(0.2729 -0.962 0.962 0.2729 55.8412 1659.2218)" class="st15" width="60.4" height="2.9"/>
			
				<rect x="1095.5" y="791.2" transform="matrix(0.7754 -0.6315 0.6315 0.7754 -247.6805 888.9117)" class="st15" width="60.4" height="2.9"/>
			<g>
				<path class="st13" d="M1125.3,826.6c-18.7-0.3-33.6-15.6-33.3-34.4c0.3-18.7,15.6-33.6,34.4-33.3c18.8,0.3,33.6,15.6,33.3,34.4
					C1159.4,812,1143.9,826.8,1125.3,826.6z M1126.2,765.5c-15-0.3-27.3,11.8-27.6,26.8s11.8,27.3,26.8,27.6
					c15,0.3,27.3-11.8,27.6-26.8C1153.1,778.1,1141.1,765.8,1126.2,765.5z"/>
			</g>
		</g>
		<g>
			<circle class="st15" cx="741.4" cy="787.1" r="12.7"/>
			
				<rect x="739.9" y="756.9" transform="matrix(1.461746e-02 -0.9999 0.9999 1.461746e-02 -56.4983 1516.9017)" class="st15" width="2.9" height="60.4"/>
			
				<rect x="739.9" y="756.9" transform="matrix(0.5855 -0.8107 0.8107 0.5855 -330.7961 927.2365)" class="st15" width="2.9" height="60.4"/>
			
				<rect x="739.7" y="756.8" transform="matrix(0.9446 -0.3282 0.3282 0.9446 -217.2381 286.8246)" class="st15" width="2.9" height="60.4"/>
			
				<rect x="711" y="785.6" transform="matrix(0.2729 -0.962 0.962 0.2729 -218.3081 1285.34)" class="st15" width="60.4" height="2.9"/>
			
				<rect x="711.2" y="785.6" transform="matrix(0.7754 -0.6315 0.6315 0.7754 -330.4572 644.9592)" class="st15" width="60.4" height="2.9"/>
			<g>
				<path class="st13" d="M740.9,820.9c-18.7-0.3-33.6-15.6-33.3-34.4c0.3-18.7,15.6-33.6,34.4-33.3c18.8,0.3,33.6,15.6,33.3,34.4
					C775,806.3,759.6,821.2,740.9,820.9z M741.8,759.9c-15-0.3-27.3,11.8-27.6,26.8c-0.3,15,11.8,27.3,26.8,27.6
					c15,0.3,27.3-11.8,27.6-26.8C768.7,772.5,756.8,760.2,741.8,759.9z"/>
			</g>
		</g>
		<g>
			<circle class="st15" cx="682.1" cy="761.9" r="10.5"/>
			
				<rect x="680.9" y="737" transform="matrix(1.461746e-02 -0.9999 0.9999 1.461746e-02 -89.7802 1432.8578)" class="st15" width="2.4" height="49.9"/>
			
				<rect x="680.9" y="737" transform="matrix(0.5855 -0.8107 0.8107 0.5855 -334.9969 868.8387)" class="st15" width="2.4" height="49.9"/>
			
				<rect x="680.7" y="737" transform="matrix(0.9446 -0.3282 0.3282 0.9446 -212.2943 265.9925)" class="st15" width="2.4" height="49.9"/>
			
				<rect x="657" y="760.8" transform="matrix(0.2729 -0.962 0.962 0.2729 -237.1685 1210.1132)" class="st15" width="49.9" height="2.4"/>
			
				<rect x="657.2" y="760.6" transform="matrix(0.7754 -0.6315 0.6315 0.7754 -327.8846 601.8726)" class="st15" width="49.9" height="2.4"/>
			<g>
				<path class="st13" d="M681.7,790c-15.5-0.3-27.8-13-27.6-28.5c0.3-15.5,13-27.8,28.5-27.6c15.5,0.3,27.8,13,27.6,28.5
					C709.9,777.9,697.2,790.2,681.7,790z M682.3,739.5c-12.4-0.1-22.7,9.7-22.8,22.2c-0.1,12.4,9.7,22.7,22.2,22.8
					c12.4,0.1,22.7-9.7,22.8-22.2C704.7,749.9,694.9,739.6,682.3,739.5z"/>
			</g>
		</g>
		<polygon class="st13" points="1195.2,740.4 586.5,731.5 591.1,659.6 1199.4,670.8 		"/>
		<g>
			<path class="st16" d="M864.1,683.1c0.5,0.3,1.4,0.1,2.3,0.1C865.8,683,865.2,683,864.1,683.1z"/>
			<path class="st16" d="M866.4,683.2L866.4,683.2L866.4,683.2L866.4,683.2z"/>
			<path class="st16" d="M921.6,715.7c-0.3,0-0.5,0-0.8,0C921.1,715.7,921.3,715.7,921.6,715.7z"/>
			<path class="st16" d="M898.6,684.7l0.6-0.4C899.5,684.3,898.5,684.8,898.6,684.7c0.8-0.3,0.8-0.3,0.8-0.3s-0.3,0.1,0.3,0h-0.1
				c-0.1,0-0.3,0.1-0.5,0.1c0.9-0.3,0.1,0,0.4-0.1c0.3,0,0.3-0.1,0.5-0.1h0.1c-0.3,0.1-0.8,0.3-0.8,0.3c-0.3,0.1-0.6,0.3-0.8,0.3
				l0,0l0,0l-0.4,0.3c-0.3,0.3-0.5,0.4-0.8,0.6c-1,0.8-2.1,1.7-3.1,2.3c-1.9,1.4-3.3,2.7-4.2,3.3c0.5-0.1,1.4-1,2.1-1
				c-0.8,0.9-1.3,0.9-1.5,1.4c-0.6-0.3-1.9,1.4-2.8,1.4l-0.1,0.5l-0.5,0.1c-3.6,3.3-0.8,0.8-4.2,3.3c-1.9,1.5-2.7,2.7-3.8,3.3
				c0.1-0.1,0.6-0.3,0.3,0.1c-0.3-0.1-1.3,1.3-1.7,1.2c-0.3,0.3-0.8,0.6-1.2,1c-0.3,0.1-0.3,0.3-0.4,0.5c-0.1,0.1-0.1,0.3,0.3,0.1
				c-0.5,0.3-3.3,2.2-1.8,0.9c-0.9,0.6-1.8,1.4-2.4,1.9l1.3-0.9c-1.5,1.2-2.7,2.1-3.8,2.9c-1,0.8-2.1,1.5-2.8,2.3l1.3-0.8
				c-1.8,1.4-3.2,2.6-4.5,3.1l1.7-1.5c-3.1,2.4-4.9,3.8-7.1,5.8l0.9-0.6c-0.6,0.6-2.1,1.9-4,3.5c-0.9,0.8-1.9,1.7-2.9,2.6
				c-0.5,0.4-1,0.9-1.5,1.3l-0.8,0.6l-0.4,0.4c-0.1,0.1-0.1,0.3-0.3,0.3c6-0.1,11.9-0.4,13.8-0.5l-0.9-0.4l3.1-0.3
				c-0.3,0-2.9,1-3.1,0.9c0.8,0,1.9,0,3.5,0c0.8,0,1.5,0,2.4,0c0.9,0,1.8,0,2.7,0c1.9,0,4,0,6.2,0.1c1.8,0,3.7,0.1,5.6,0.1
				c5.3,0.1,10.4,0.4,12.1,0.5c1.3,0.3,0.3,0.5,0.1,0.5c1.5,0,0.6-0.3,2.1-0.3c0.4,0.1-0.1,0.3-0.3,0.3c0.5,0,1.2,0.1,1.2,0
				c-0.8-0.1-0.4-0.5-0.6-0.8l1.7,0.1l-0.1,0.3c0.4,0,1-0.6,2.7-0.4c2.8,0.3,5.9,0.3,8.7,0.4c0,0.1-0.6,0.3-1.3,0.3
				c0.4,0,0.9,0,1.3,0.1c-0.6-0.3,1.2-0.1,0.6-0.3c2.1-0.5,4.7,0.1,6.5-0.3c0.1-0.5,4.1-9.2,4.1-9.9c0.5,0,1.2,0,1.3,0.1
				c-0.1-0.1-1.3-0.3-1.8-0.1l-0.1,0.4c-1.3,0.1-0.3-0.3-1.7-0.3c0-0.3,1.2-0.4,2.2-0.4c-0.9,0-1.9-0.3-2.3,0
				c-0.9-0.1,0.1-0.4-1-0.5c-0.8,0.1-1.8,0.4-2.7,0.1l0,0c-2.2-0.4-3.3,0.4-5.3,0l0.3-0.1c-0.6-0.1-2.1,0-3.3-0.3
				c0.4,0.1,0.6,0.3-0.1,0.3c-1.4-0.3-2.4-0.1-3.5-0.4l-1,0.3c-2.6-0.1-8.8-0.3-15.1-0.5c-1.5,0-3.2-0.1-4.6-0.1c-0.4,0-0.6,0-1,0
				h-0.1c-0.1,0-0.1,0-0.3,0c-0.4,0-0.6,0-0.8,0h0.1c-0.3,0-0.8,0-1.2,0.1l0,0h0.1l0.1-0.1l0.3-0.3c0.3-0.3,0.4-0.4,0.6-0.6
				c0.1-0.1,0.3-0.3,0.4-0.4l0.1-0.1l0.1-0.1l0,0l0.1-0.1l0.3-0.3c1.5-1.3,2.9-2.4,4.2-3.5c1.2-0.6,2.6-1.8,3.7-2.6
				c-0.6,0.4-0.5,0,0-0.3c3.3-2.6,0.1-0.4,3.5-3.1c0.9-0.8,2.6-2.2,4.6-3.7c2.2-1.7,4.7-3.7,7.3-5.6c8.2-6.4,16.7-12.8,20.1-15.4
				c0.6-0.6,1.5-1.4,2.4-2.2c0.5-0.4,1-0.8,1.4-1.2l0.8-0.6c0.3-0.1,0.4-0.4,0.5-0.5c-2.1,0-4.1,0-6.2,0l0.6-0.1c-1.2,0-3.6,0-6.5,0
				c-1.5,0-3.1-0.1-4.9-0.1c-1.8,0-3.5-0.1-5.3-0.3c-1.8,0-3.5-0.3-5.1-0.4c-1.5-0.1-2.9-0.3-4.2-0.3c-1.7-0.1-2.9-0.3-3.6-0.3
				l0.4,0.1c-2.3,0.1-2.1-0.4-3.8-0.6c0.3,0.5-1.8,0.6-2.6,0.5v-0.1c-1.2,0-3.8,0.3-5.8,0.3l0.1-0.3c-1.7,0.3-4.6,0-5.8,0
				c-2.7-0.1-6.8-0.5-10.4,0.3c-0.8-0.1-1.5-0.3-2.3-0.5l-0.4,0.1c0,0-0.8,2.2-1,4.6c-0.1,2.4,0.3,4.9,2.6,5.5v0.3l0.9-0.1
				c1,0,1.5-0.3,1.4,0l-1.4,0.1c1,0,0.4,0.1-0.1,0.4c0.4,0,0.9,0,1.3,0c0.3-0.1-0.1-0.1-0.4-0.1c0.5-0.1,1.4-0.4,2.1-0.4
				c1,0,0.1,0.4,1.3,0.4c6.7-0.1,13.2,0.5,20.1,0.9c0.1,0.1,0,0.1-0.3,0.1c2.1,0,4,0.3,5.9,0.3c0.5,0.1,0.6,0.3,0.8,0.4
				c0,0,0.1,0,0.4,0c0.1,0,0.3,0,0.5,0h0.1l0,0l0,0h0.1C898.6,684.7,898.6,684.7,898.6,684.7z"/>
		</g>
	</g>
</g>
</svg>
